<?xml version="1.0" encoding="utf-8"?>
<svg id="Layer_1" data-name="Layer 1" viewBox="0 -163.6 471.283 471.3" xmlns="http://www.w3.org/2000/svg">
  <defs>
    <style>.cls-1{fill:#662d91;}</style>
  </defs>
  <title>RokuLogo5</title>
  <rect x="-0.008" width="471.3" height="471.3" style="fill: rgb(102, 45, 145);" y="-163.6"/>
  <path class="cls-1" d="M157.28,425.69H113.7l-34.63-48H67.42v47.92H29v-144h55c31.72,0,57.63,21.58,57.63,48.12,0,16.2-9.93,30.67-25,39.51l40.64,56.47m-54-96a24.08,24.08,0,0,0-24-24.18H67.42v48.16H79.3A24.06,24.06,0,0,0,103.26,329.71Z" transform="translate(-29.02 -281.59)" style="fill: rgb(255, 255, 255);"/>
  <path class="cls-1" d="M259.73,369.22a59,59,0,1,1-59.13-58.73,58.85,58.85,0,0,1,59.13,58.73M200.6,338.35c-10.18,0-18.78,13.83-18.78,30.87s8.6,30.85,18.78,30.85c10.37,0,19-13.8,19-30.85S211,338.35,200.6,338.35Z" style="fill: rgb(255, 255, 255);" transform="translate(-29.02 -281.59)"/>
  <path class="cls-1" d="M349.88,312.88l-44.25,44.27V312.76H267.2V425.57h38.43V379.8l46.21,45.77h48.32l-58.7-58.73,48.64-48.62v67c0,22.25,13.34,42.74,47,42.74,16,0,30.63-9.07,37.75-17.26l17.29,14.89h8.18V312.88H462v73c-4.33,7.55-10.37,12.31-19.67,12.31-9.47,0-13.8-5.62-13.8-23.53V312.88Z" transform="translate(-29.02 -281.59)" style="fill: rgb(255, 255, 255);"/>
</svg>